<?xml version="1.0" encoding="UTF-8"?>
<!-- LinkedIn icon from Bootstrap Icons (MIT License) -->
<svg xmlns="http://www.w3.org/2000/svg" width="24" height="24" viewBox="0 0 16 16" fill="#ffffff" aria-hidden="true">
  <path d="M0 1.146C0 .513.526 0 1.175 0h13.65C15.474 0 16 .513 16 1.146v13.708c0 .633-.526 1.146-1.175 1.146H1.175C.526 16 0 15.487 0 14.854V1.146zM4.943 6.542H2.542V13h2.401V6.542zM3.742 5.54c.837 0 1.354-.554 1.354-1.247-.015-.707-.517-1.247-1.339-1.247S2.4 3.586 2.4 4.293c0 .693.516 1.247 1.327 1.247h.015zM13.458 13V9.357c0-1.944-1.037-2.848-2.419-2.848-1.113 0-1.61.612-1.889 1.047v-1.014H6.75c.03.666 0 6.458 0 6.458h2.401V9.442c0-.19.014-.38.07-.516.154-.38.506-.773 1.096-.773.773 0 1.082.583 1.082 1.438V13h2.059z"/>
</svg>
